<?xml version="1.0" encoding="utf-8"?>
<!-- Generator: Adobe Illustrator 24.3.0, SVG Export Plug-In . SVG Version: 6.00 Build 0)  -->
<svg version="1.1" id="Layer_1" xmlns="http://www.w3.org/2000/svg" xmlns:xlink="http://www.w3.org/1999/xlink" x="0px" y="0px"
	 viewBox="0 0 200.7 59.5" style="enable-background:new 0 0 200.7 59.5;" xml:space="preserve">
<style type="text/css">
	.st0{fill:#03A3DF;}
	.st1{fill:#FFFFFF;}
	.st2{fill:#CCCCCC;}
	.st3{fill:#00A3E0;}
	.st4{fill:#FF7F32;}
</style>
<path class="st0" d="M24.5,46.7c-0.5-0.1-1-0.3-1.4-0.5c-0.5-0.3-1.1-0.5-1.6-0.9c-0.3-0.2-0.6-0.2-0.8-0.4
	c-0.2-0.2-0.5-0.3-0.8-0.5c0.1,0,0.1,0,0.2,0c0,0,0,0,0,0c-0.5-0.3-0.9-0.7-1.4-1c-0.1-0.1-0.3-0.1-0.4-0.2l-0.1,0
	c-0.3-0.3-0.6-0.6-0.9-0.9c0,0,0,0,0,0c0.1,0,0.1,0,0.2,0c-0.1-0.1-0.2-0.2-0.3-0.3c-0.3-0.4-0.6-0.8-1-1.2
	c-0.1-0.1-0.1-0.1-0.2-0.1c-0.1,0-0.2,0-0.3-0.2c-0.2-0.3-0.4-0.6-0.6-0.8c0,0-0.1-0.1-0.1-0.1h0.3c0-0.1,0-0.1-0.1-0.1
	c-0.3-0.5-0.6-1.1-0.8-1.6c-0.1-0.1-0.1-0.1-0.2-0.1c-0.2,0-0.2,0-0.3-0.2c-0.1-0.4-0.3-0.7-0.5-1.1c0.1,0,0.2,0,0.3,0
	c-0.2-0.7-0.4-1.3-0.6-2c-0.1,0-0.1,0-0.2,0c-0.1,0-0.2,0-0.2-0.2c-0.1-0.4-0.2-0.8-0.2-1.2h0.4c-0.1-0.7-0.1-1.4-0.2-2.2h-0.4
	c0-0.5,0.1-1,0.1-1.5h0.4c0.1-0.7,0.2-1.4,0.3-2.1h-0.4c0.1-0.4,0.2-0.8,0.3-1.2c0-0.1,0.1-0.2,0.2-0.2s0.2,0,0.2-0.2
	c0.2-0.6,0.4-1.1,0.6-1.7c0,0,0-0.1,0.1-0.1h-0.3c0.1-0.3,0.2-0.5,0.3-0.8c0-0.1,0.1-0.1,0.1-0.2c0.1-0.2,0.2-0.3,0.4-0.3
	c0,0,0.1,0,0.1-0.1c0.3-0.6,0.6-1.1,1-1.7c-0.1,0-0.2,0-0.3,0c0.2-0.2,0.3-0.4,0.4-0.6c0.1-0.1,0.1-0.2,0.2-0.3
	c0.1-0.1,0.2-0.2,0.4-0.2c0,0,0.1,0,0.1-0.1c0.4-0.5,0.8-0.9,1.3-1.4c0,0,0,0,0-0.1h-0.2c0,0,0,0,0,0c0.1,0,0.1-0.1,0.2-0.1
	c0.3-0.2,0.5-0.5,0.8-0.7c0.1-0.1,0.2-0.1,0.3-0.2c0.5-0.4,1.1-0.8,1.6-1.1c0,0,0,0,0,0c0,0-0.1,0-0.1,0c0.1,0,0.1-0.1,0.1-0.1
	c0.2-0.1,0.4-0.2,0.6-0.4c0.3-0.2,0.6-0.3,1-0.4c0.5-0.2,1-0.5,1.5-0.7c0.4-0.2,0.8-0.3,1.2-0.5c0.1-0.1,0.3-0.1,0.4-0.1
	c0,0,0,0,0.1,0c0.2,0,0.4-0.1,0.5-0.1c0.2,0,0.3-0.1,0.5-0.1c0,0-0.1,0.1-0.1,0.1c-0.1,0.1-0.2,0.1-0.4,0.1c0.4,0.1,0.7,0,1-0.2
	c0.1-0.1,0.2-0.1,0.3-0.1c0.2-0.1,0.5-0.1,0.7-0.2c0,0-0.1,0.1-0.1,0.1c-0.3,0.1-0.6,0.2-0.9,0.3c0,0-0.1,0-0.1,0.1
	c0.2,0,0.3,0,0.5,0c0.1,0,0.2,0,0.2,0c0.4-0.2,0.8-0.4,1.1-0.5c-0.2,0-0.4,0-0.6,0c-0.2,0-0.3,0-0.5,0c0,0-0.1,0-0.1-0.1
	c0.5-0.1,1.1-0.1,1.6-0.2c0.3,0,0.6,0,1,0h0c0.3,0,0.3,0,0.5-0.1c0.1,0.2,0.2,0.1,0.3,0.1L30.7,13c0.8,0.1,1.6,0.1,2.4,0.2v0
	c-0.6,0-1.1,0-1.7,0.1c0.2,0.2,0.4,0.4,0.5,0.6c0,0,0.1,0,0.1,0c0.5,0,1.1,0,1.6,0c0.9,0,1.8,0.1,2.7,0.1c0.1,0,0.2,0,0.2,0.1
	c-1.5,0.1-2.9,0.1-4.4,0.2c0,0,0,0.1,0,0.1c0.2,0.3,0.3,0.6,0.5,0.9c0,0.1,0.1,0.1,0.2,0.1c1,0,2.1,0,3.2,0.1c1.1,0,2.2,0.1,3.3,0.1
	c0.2,0,0.3,0,0.5,0.1c0,0-0.1,0-0.1,0c-0.7,0-1.4,0.1-2,0.1c-1.3,0-2.5,0.1-3.8,0.1c-0.3,0-0.5,0-0.8,0c0,0.1,0,0.1,0,0.1
	c0.1,0.4,0.3,0.8,0.4,1.3c0,0.1,0,0.1,0.1,0.1c1,0,1.9,0,2.9,0c1.5,0,3,0.1,4.5,0.1c0.5,0,1.1,0.1,1.6,0.1v0c-0.2,0-0.4,0.1-0.6,0.1
	c-0.9,0-1.8,0.1-2.7,0.1c-1.2,0-2.5,0.1-3.7,0.1l-1.8,0c0,0-0.1,0-0.1,0c0.1,0.6,0.3,1.2,0.4,1.8c3.6,0.1,7.2,0.1,10.8,0.4v0.1
	c-0.3,0-0.6,0.1-0.9,0.1c-1.4,0.1-2.8,0.1-4.2,0.2c-0.8,0-1.7,0-2.5,0.1c-1,0-2,0-3,0.1c0.1,0.7,0.2,1.4,0.3,2.1
	c4,0.1,8.1,0.1,12.1,0.4v0.1c-0.2,0-0.3,0-0.5,0.1c-0.6,0-1.2,0.1-1.8,0.1c-1,0-2.1,0.1-3.2,0.1c-0.8,0-1.5,0-2.3,0.1
	c-1.1,0-2.2,0-3.3,0.1h-1c0.1,0.8,0.1,1.6,0.2,2.4h0.7c1,0,2,0,3,0c1.2,0,2.4,0,3.6,0.1c1.2,0,2.3,0.1,3.5,0.1
	c0.6,0,1.2,0.1,1.8,0.2c0.1,0,0.2,0,0.2,0.1c-0.2,0-0.4,0.1-0.6,0.1c-0.9,0-1.8,0.1-2.7,0.1c-1.2,0-2.5,0.1-3.7,0.1l-2.5,0.1
	c-1.1,0-2.2,0-3.2,0.1c0,0,0,0-0.1,0c0,0.8,0.1,1.7,0.1,2.5h0.5c1,0,2,0,3,0c0.8,0,1.7,0,2.5,0.1c1.2,0,2.3,0.1,3.5,0.1
	c1,0,2.1,0.1,3.1,0.2c0.2,0,0.5,0.1,0.7,0.1v0C48,30,47.8,30,47.6,30c-1,0.1-2,0.1-3,0.2c-1.2,0-2.3,0.1-3.5,0.1
	c-0.8,0-1.6,0-2.5,0.1c-1,0-2,0-3.1,0.1h-0.6c0,0.9,0,1.7-0.1,2.6h0.6c0.6,0,1.2,0,1.7,0c1.4,0,2.7,0,4.1,0.1c0.9,0,1.8,0,2.7,0.1
	c1.1,0,2.2,0.1,3.3,0.2c0.2,0,0.4,0,0.6,0.1v0c-0.2,0-0.3,0-0.5,0.1c-0.9,0.1-1.9,0.1-2.8,0.2c-1.2,0-2.3,0.1-3.5,0.1
	c-0.8,0-1.6,0-2.4,0.1c-1.1,0-2.2,0-3.3,0.1h-0.6c-0.1,0.8-0.1,1.6-0.2,2.4h0.5c0.8,0,1.6,0,2.3,0c1.3,0,2.5,0,3.8,0.1
	c1,0,2.1,0.1,3.1,0.1c0.7,0,1.4,0.1,2.2,0.2c0.1,0,0.2,0,0.3,0v0c-0.5,0-1,0.1-1.4,0.1c-1.2,0.1-2.4,0.1-3.7,0.2
	c-0.7,0-1.4,0-2.2,0.1c-1,0-1.9,0-2.9,0.1c-0.7,0-1.4,0-2.2,0h-0.1c-0.1,0.7-0.2,1.4-0.3,2.2c1.8,0,3.7,0.1,5.5,0.1s3.6,0.1,5.4,0.3
	v0c-0.1,0-0.2,0-0.3,0c-0.9,0-1.8,0.1-2.6,0.2c-1.3,0-2.7,0.1-4,0.1c-1,0-2.1,0-3.1,0.1c-0.3,0-0.6,0-0.9,0c-0.1,0-0.2,0.1-0.2,0.2
	c-0.1,0.5-0.2,1-0.3,1.6v0c3.1,0.1,6.1,0,9.2,0.3c0,0,0,0,0,0c-0.2,0-0.4,0-0.6,0.1c-0.7,0-1.3,0.1-2,0.1c-1.5,0-3,0.1-4.6,0.1
	c-0.7,0-1.4,0-2.1,0c-0.1,0-0.2,0-0.2,0.2c-0.1,0.4-0.3,0.8-0.4,1.3c0,0,0,0.1,0,0.1c2.5,0.1,4.9,0,7.3,0.2v0
	c-0.3,0-0.5,0.1-0.8,0.1c-1.2,0-2.3,0.1-3.5,0.1c-1,0-2.1,0-3.1,0.1c-0.1,0-0.2,0-0.2,0.1c-0.1,0.3-0.3,0.6-0.4,0.9c0,0,0,0.1,0,0.1
	c1.7,0,3.3,0,5,0.2v0c-0.4,0-0.8,0.1-1.2,0.1c-1.3,0-2.6,0.1-3.9,0.1c0,0-0.1,0-0.1,0c-0.2,0.2-0.4,0.4-0.5,0.7c0.8,0,1.6,0,2.3,0.1
	v0.1c-0.5,0-1.1,0-1.6,0.1c-0.5,0-1.1,0.2-1.6,0.2c0.1-0.1,0.2-0.1,0.3-0.2c0,0,0,0,0,0h-0.5c0,0.1,0,0.1,0,0.3
	c-0.2-0.3-0.4-0.3-0.7-0.2c0,0,0,0,0,0c-0.2,0-0.4,0-0.6,0c-0.1,0-0.1,0-0.1,0c-0.1,0-0.3,0-0.5,0c-0.8,0-1.6-0.1-2.3-0.3v0
	c0.1,0,0.2,0,0.3,0c0,0-0.1,0-0.1-0.1c0,0,0.1,0,0.2,0c0.2,0,0.4,0,0.5,0.1c0,0,0,0,0,0c0,0,0,0-0.1,0c-0.4-0.2-0.9-0.3-1.3-0.5
	c-0.2-0.1-0.5,0-0.7,0c0.2,0.1,0.5,0.2,0.8,0.3c0.1,0.1,0.3,0.1,0.5,0.2c0,0-0.1,0-0.1,0c-0.4-0.1-0.8-0.3-1.2-0.4
	C24.8,46.7,24.7,46.7,24.5,46.7C24.5,46.7,24.5,46.7,24.5,46.7L24.5,46.7z M33.5,30.5c-1.1,0-2.1,0-3.2,0V33h3.2
	C33.5,33,33.5,30.5,33.5,30.5z M33.5,29.4c0-0.8,0-1.7,0-2.5h-3.2v2.4C31.4,29.4,32.4,29.4,33.5,29.4z M25.6,30.6c0,0.8,0,1.6,0,2.4
	h3.1v-2.4H25.6z M28.8,29.3V27h-3.1c0,0.8,0,1.5-0.1,2.3H28.8z M33.4,34.1h-3.2v2.1c0,0.1,0,0.2,0.2,0.2c0.7,0,1.5,0,2.2,0h0.7
	C33.4,35.6,33.4,34.9,33.4,34.1z M33.3,23.6h-3v2.2h3.1C33.4,25.1,33.3,24.3,33.3,23.6z M28.9,36.4c0-0.1,0-0.3,0-0.4
	c0-0.6,0-1.1,0-1.7c0-0.1,0-0.1-0.1-0.1c-0.2,0-0.5,0-0.7,0c-0.7,0-1.4,0-2.1,0c0,0-0.1,0-0.1,0c0,0,0,0.1,0,0.1l0.1,2
	c0,0.1,0.1,0.1,0.1,0.1c0.6,0,1.2,0,1.9,0C28.2,36.4,28.6,36.4,28.9,36.4z M28.9,23.6H26c-0.1,0.7-0.1,1.4-0.2,2.1c0,0,0,0,0.1,0
	c1,0,1.9,0,2.9,0c0.1,0,0.1,0,0.1-0.1c0-0.3,0-0.5,0-0.8C28.9,24.5,28.9,24.1,28.9,23.6z M21.4,30.6c0,0.8,0.1,1.5,0.1,2.3h2.8
	c0-0.8,0-1.5-0.1-2.3C24.2,30.6,21.5,30.6,21.4,30.6z M21.5,29.3h2.8c0-0.8,0.1-1.5,0.1-2.2h-2.8C21.6,27.8,21.5,28.5,21.5,29.3z
	 M30.3,39.5h2.8c0.1-0.7,0.1-1.4,0.2-2.1h-3C30.3,38.1,30.3,38.8,30.3,39.5z M24.4,34.2h-2.8c0.1,0.7,0.2,1.4,0.3,2.1h2.6
	C24.6,35.6,24.5,34.9,24.4,34.2z M30.3,22.6h2.9c-0.1-0.7-0.1-1.4-0.2-2h-2.7C30.3,21.3,30.3,21.9,30.3,22.6z M26.3,39.4H29
	c0-0.7-0.1-1.3-0.1-2H26C26.1,38.1,26.2,38.8,26.3,39.4z M24.8,23.7C24.7,23.7,24.7,23.6,24.8,23.7c-0.9,0-1.7,0-2.5,0
	c0,0-0.1,0-0.1,0.1C22.1,24,22,24.3,22,24.5c-0.1,0.4-0.1,0.8-0.2,1.2h2.7C24.6,25.1,24.7,24.4,24.8,23.7z M26.1,22.5H29
	c0-0.6,0.1-1.3,0.1-2H29c-0.5,0-1,0-1.5,0c-0.3,0-0.6,0-0.9,0c-0.1,0-0.1,0-0.1,0.1c0,0.2-0.1,0.4-0.1,0.5
	C26.3,21.7,26.2,22.1,26.1,22.5z M17.9,30.6v0.2c0,0.6,0.1,1.3,0.1,1.9c0,0.1,0,0.2,0.2,0.2c0.6,0,1.2,0,1.9,0h0.3
	c0-0.8-0.1-1.5-0.1-2.2H17.9z M18.1,27c-0.1,0.7-0.1,1.5-0.2,2.2h2.4c0.1-0.7,0.1-1.5,0.2-2.2H18.1z M25.2,39.4L25.2,39.4
	c-0.1-0.7-0.2-1.3-0.3-1.9c0-0.1-0.1-0.1-0.1-0.1c-0.6,0-1.2,0-1.8,0h-0.6c0.2,0.6,0.4,1.2,0.5,1.8c0,0,0.1,0.1,0.1,0.1
	c0.5,0,1,0,1.6,0C24.7,39.4,24.9,39.4,25.2,39.4z M20.5,34.2h-2.3c0.1,0.7,0.3,1.4,0.4,2.1h2.2L20.5,34.2z M30.3,42.2h2.4
	c0.1-0.6,0.2-1.2,0.2-1.8h-2.7C30.3,40.4,30.3,42.2,30.3,42.2z M24.9,22.5c0.1-0.6,0.3-1.2,0.4-1.9c0,0,0,0,0,0c-0.7,0-1.5,0-2.2,0
	c0,0-0.1,0.1-0.1,0.1c-0.1,0.4-0.3,0.8-0.4,1.2c0,0.2-0.1,0.3-0.1,0.5H24.9z M20.6,25.7c0.1-0.7,0.3-1.4,0.4-2c0,0,0,0,0,0
	c-0.7,0-1.4,0-2.1,0c0,0-0.1,0-0.1,0.1c-0.2,0.6-0.3,1.3-0.5,1.9C18.3,25.7,20.6,25.7,20.6,25.7z M26.5,40.4
	c0.1,0.6,0.3,1.2,0.4,1.7h2.4l-0.1-1.7H26.5z M30.3,19.7h2.6c-0.1-0.6-0.2-1.2-0.3-1.7h-2.3C30.3,18,30.3,19.7,30.3,19.7z M29.3,18
	H29c-0.6,0-1.2,0-1.9,0c-0.1,0-0.1,0-0.1,0.1c-0.1,0.3-0.2,0.6-0.2,1c0,0.2-0.1,0.4-0.1,0.6h2.5C29.2,19.1,29.3,18.5,29.3,18z
	 M19,37.5C19,37.5,19,37.6,19,37.5c0.2,0.7,0.4,1.2,0.7,1.8c0,0,0.1,0.1,0.1,0.1c0.5,0,1.1,0,1.6,0h0.3c-0.2-0.6-0.4-1.3-0.6-1.9
	C21.2,37.5,19,37.5,19,37.5z M17,32.8c0-0.7-0.1-1.5-0.1-2.2h-1.8c0.1,0.7,0.1,1.4,0.1,2.2H17z M15.4,27.1c-0.1,0.7-0.2,1.4-0.2,2.1
	h1.8c0.1-0.7,0.1-1.4,0.2-2.1C17.2,27.1,15.4,27.1,15.4,27.1z M19.3,22.5c0.1,0,0.1,0,0.2,0c0.6,0,1.2,0,1.8,0c0.1,0,0.1,0,0.2-0.1
	c0.2-0.5,0.4-1,0.5-1.6c0,0,0-0.1,0-0.1c0,0,0,0-0.1,0c-0.6,0-1.2,0-1.8,0c0,0-0.1,0-0.1,0.1c-0.2,0.3-0.3,0.7-0.5,1
	C19.4,22,19.4,22.2,19.3,22.5z M25.9,42.1c-0.2-0.5-0.3-1.1-0.5-1.6c0,0-0.1-0.1-0.1-0.1c-0.3,0-0.6,0-1,0h-1.2v0.1
	c0.2,0.5,0.4,1,0.6,1.5c0,0,0.1,0.1,0.1,0.1C24.6,42.1,25.2,42.1,25.9,42.1z M17.7,36.3c-0.2-0.7-0.3-1.4-0.5-2h-1.7
	c0,0,0,0.1,0,0.1c0.1,0.6,0.3,1.2,0.5,1.8c0,0.1,0.1,0.1,0.2,0.1H17.7z M23.4,19.6C23.4,19.6,23.4,19.6,23.4,19.6c0.8,0,1.4,0,2.1,0
	c0.1,0,0.1,0,0.1-0.1c0.1-0.3,0.2-0.6,0.3-1c0.1-0.2,0.1-0.4,0.2-0.6h-0.3c-0.5,0-1.1,0-1.7,0c-0.1,0-0.1,0-0.1,0.1
	c-0.1,0.2-0.2,0.3-0.2,0.5C23.7,18.9,23.5,19.3,23.4,19.6z M15.7,25.7h1.7c0,0,0.1-0.1,0.1-0.1c0.1-0.3,0.1-0.5,0.2-0.8
	c0.1-0.4,0.2-0.7,0.3-1.1c0,0,0,0,0,0c-0.5,0-1,0-1.5,0c0,0-0.1,0.1-0.1,0.1c-0.1,0.4-0.3,0.8-0.4,1.2
	C15.8,25.2,15.7,25.4,15.7,25.7z M32.3,44.5c0.1-0.5,0.2-1,0.3-1.5h-2.3v1.5H32.3z M20.2,40.5c0,0.1,0,0.1,0.1,0.1
	c0.3,0.5,0.5,0.9,0.8,1.4c0,0.1,0.1,0.1,0.2,0.1c0.3,0,0.6,0,1,0H23c-0.2-0.5-0.5-1.1-0.8-1.6c0,0-0.1-0.1-0.1-0.1c-0.3,0-0.6,0-1,0
	C21.1,40.5,20.2,40.5,20.2,40.5z M27.1,43c0.2,0.5,0.3,0.9,0.5,1.4c0,0,0.1,0,0.1,0c0.1,0,0.3,0,0.4,0h1.4c0-0.5-0.1-0.9-0.2-1.4
	c0,0-0.1-0.1-0.1-0.1h-0.7C28.5,43,27.1,43,27.1,43z M16.5,37.5C16.5,37.5,16.5,37.6,16.5,37.5c0.2,0.6,0.5,1.2,0.8,1.8
	c0,0,0.1,0.1,0.1,0.1c0.3,0,0.6,0,1,0h0.5v0c-0.2-0.6-0.5-1.2-0.7-1.7c0,0-0.1-0.1-0.1-0.1C17.5,37.5,17,37.5,16.5,37.5z M19.2,20.7
	h-1.4c0,0-0.1,0-0.1,0.1c-0.2,0.3-0.4,0.6-0.5,1c-0.1,0.2-0.2,0.5-0.4,0.7h1.6c0,0,0.1-0.1,0.1-0.1c0.1-0.3,0.2-0.5,0.3-0.8
	C18.9,21.3,19.1,21,19.2,20.7z M32.5,17.2c-0.1-0.4-0.2-0.8-0.3-1.1c0-0.1-0.1-0.2-0.3-0.2c-0.5,0-1.1,0-1.6-0.1v1.4H32.5z M23.3,18
	h-1.6c0,0-0.1,0-0.1,0.1c-0.3,0.5-0.6,0.9-0.9,1.4c0,0,0,0.1,0,0.1h1.8c0.1,0,0.1,0,0.2-0.1c0.2-0.4,0.4-0.8,0.6-1.2
	C23.2,18.2,23.2,18.1,23.3,18z M29.6,15.8h-0.2c-0.4,0-0.8,0-1.2,0c-0.4,0-0.4,0-0.5,0.4c-0.1,0.3-0.2,0.6-0.3,1h2.1
	C29.5,16.8,29.5,16.3,29.6,15.8z M24.3,43C24.3,43,24.3,43.1,24.3,43c0.2,0.5,0.5,0.9,0.8,1.3c0,0,0.1,0,0.1,0c0.4,0,0.8,0,1.2,0
	h0.4c-0.2-0.5-0.4-0.9-0.6-1.3c0,0-0.1-0.1-0.1-0.1h-0.8C25,43,24.7,43,24.3,43z M14.4,30.7h-1.1c0.1,0.7,0.1,1.4,0.2,2.2h1.1
	C14.5,32.1,14.5,31.4,14.4,30.7z M13.6,27.1c-0.1,0.7-0.2,1.4-0.3,2.1h1.1c0.1-0.7,0.2-1.4,0.2-2.1C14.7,27.1,13.6,27.1,13.6,27.1z
	 M24.6,17.1L24.6,17.1l1.8,0.1c0,0,0.1,0,0.1-0.1c0.1-0.1,0.1-0.3,0.2-0.5c0.1-0.3,0.2-0.5,0.4-0.8c0,0,0,0,0,0c-0.5,0-1,0-1.5,0
	c0,0-0.1,0-0.1,0.1C25.2,16.3,24.9,16.7,24.6,17.1z M20.5,42.1C20.5,42,20.5,42,20.5,42.1c-0.4-0.5-0.6-1-0.9-1.4
	c-0.1-0.2-0.2-0.2-0.4-0.2c-0.4,0-0.8,0-1.2,0v0c0.4,0.5,0.7,1,1.1,1.5c0,0,0.1,0,0.1,0C19.6,42.1,20.1,42.1,20.5,42.1z M15.4,36.2
	C15.4,36.2,15.4,36.2,15.4,36.2c-0.2-0.7-0.3-1.3-0.5-1.9c0,0-0.1-0.1-0.1-0.1c-0.2,0-0.5,0-0.8,0c-0.1,0-0.2,0-0.3,0
	c0.2,0.7,0.4,1.3,0.6,1.9c0,0,0.1,0.1,0.1,0.1C14.3,36.2,15.4,36.2,15.4,36.2z M15,25.7l0.6-2h-1c0,0-0.1,0.1-0.1,0.1
	c-0.2,0.5-0.3,0.9-0.5,1.4c-0.1,0.2-0.1,0.3-0.1,0.5C14.3,25.7,14.6,25.7,15,25.7z M20.9,18.1h-1.2c0,0-0.1,0-0.1,0.1
	c-0.4,0.5-0.7,0.9-1.1,1.4c0,0,0,0.1-0.1,0.1h1.4c0,0,0.1,0,0.1-0.1C20.2,19,20.6,18.6,20.9,18.1z M21.9,43.1
	C21.9,43.1,21.9,43.1,21.9,43.1c0.4,0.5,0.7,0.9,1.1,1.3c0,0,0.1,0.1,0.2,0.1c0.4,0,0.8,0,1.2,0c0,0,0.1,0,0.1,0
	c-0.3-0.4-0.6-0.8-0.9-1.3c0,0-0.1-0.1-0.1-0.1H21.9L21.9,43.1z M16.7,39.4c-0.2-0.5-0.5-0.9-0.7-1.4c-0.1-0.1-0.1-0.3-0.2-0.4
	s-0.3,0-0.5,0h-0.5c0,0,0,0,0,0c0.3,0.6,0.6,1.2,0.9,1.7c0,0,0.1,0.1,0.1,0.1H16.7z M22.3,17.1C22.3,17.1,22.3,17.1,22.3,17.1l1.5,0
	c0,0,0.1,0,0.1-0.1c0.2-0.2,0.3-0.5,0.5-0.7c0.1-0.2,0.3-0.3,0.4-0.5h-1c-0.3,0-0.6,0.1-0.8,0.4c-0.1,0.1-0.2,0.2-0.4,0.4
	C22.6,16.8,22.5,17,22.3,17.1z M30.3,46.2h1.4c0,0,0.1,0,0.1,0c0.1-0.3,0.2-0.7,0.4-1.1h-1.8V46.2z M15.1,22.5h0.9
	c0.1,0,0.1,0,0.2-0.1c0.3-0.5,0.6-1,0.9-1.6c0,0,0-0.1,0-0.1h-0.9c0,0-0.1,0-0.1,0.1c-0.1,0.2-0.2,0.3-0.3,0.5
	C15.6,21.7,15.4,22,15.1,22.5z M29.8,46.2c-0.1-0.4-0.1-0.7-0.2-1.1h-1.8c0.1,0.2,0.2,0.5,0.4,0.7c0.1,0.3,0.3,0.4,0.6,0.4
	C29.1,46.1,29.5,46.2,29.8,46.2z M22.5,44.4L22.5,44.4c-0.3-0.3-0.5-0.6-0.8-0.9c-0.1-0.2-0.2-0.4-0.4-0.4c-0.2-0.1-0.4,0-0.6,0H20
	c0,0,0,0,0,0c0.4,0.4,0.8,0.8,1.2,1.1c0.1,0,0.1,0.1,0.2,0.1C21.8,44.4,22.1,44.4,22.5,44.4z M30.4,15.2H32c-0.1-0.3-0.2-0.6-0.4-1
	c0,0,0-0.1-0.1-0.1h-1.2C30.4,14.2,30.4,15.2,30.4,15.2z M16.5,40.5C16.6,40.5,16.6,40.6,16.5,40.5c0.4,0.6,0.8,1.1,1.2,1.5
	c0,0,0.1,0.1,0.1,0.1h0.8v0c-0.4-0.5-0.8-1-1.1-1.5c0,0-0.1-0.1-0.1-0.1C17.4,40.5,16.5,40.5,16.5,40.5z M25.7,45.1
	C25.7,45.1,25.7,45.1,25.7,45.1c0.2,0.3,0.4,0.5,0.6,0.7c0.1,0.2,0.3,0.3,0.5,0.3c0.3,0,0.7,0,1,0c-0.2-0.3-0.4-0.5-0.5-0.8
	c-0.1-0.2-0.2-0.2-0.4-0.2C26.6,45.1,26.1,45.1,25.7,45.1z M29.7,15.2c0.1-0.3,0.1-0.6,0.2-1h-1.2c0,0-0.1,0.1-0.1,0.1
	c-0.2,0.3-0.3,0.5-0.5,0.8c0,0,0,0.1,0,0.1H29.7z M23,15.9h-0.7c-0.2,0-0.4,0.1-0.6,0.2c-0.3,0.3-0.7,0.6-1,0.9c0,0-0.1,0.1-0.1,0.1
	c0,0,0,0,0,0.1h1.1c0,0,0.1,0,0.1-0.1c0.2-0.2,0.4-0.4,0.6-0.6C22.6,16.3,22.8,16.1,23,15.9z M19.2,18.1c-0.2,0-0.5,0-0.7,0
	c-0.1,0-0.1,0-0.2,0.1c-0.4,0.4-0.8,0.9-1.2,1.3c0,0,0,0.1-0.1,0.1h0.8c0,0,0.1,0,0.1-0.1c0.1-0.1,0.2-0.3,0.3-0.4
	C18.6,18.7,18.9,18.4,19.2,18.1z M26,15.2h1.4c0,0,0.1,0,0.1-0.1c0.2-0.3,0.4-0.5,0.6-0.8l0-0.1h-0.8c-0.2,0-0.4,0.1-0.6,0.2
	C26.5,14.7,26.3,15,26,15.2z M23.9,45.1C23.9,45.1,23.9,45.2,23.9,45.1c0.3,0.3,0.6,0.5,0.9,0.7c0.2,0.2,0.5,0.3,0.9,0.3
	c0.2,0,0.4,0,0.6,0c-0.4-0.3-0.7-0.7-1-1c0,0-0.1,0-0.1,0C25.1,45.1,23.9,45.1,23.9,45.1z M18.8,43.1C18.8,43.1,18.8,43.1,18.8,43.1
	c0.4,0.4,0.8,0.7,1.1,1c0.3,0.3,0.7,0.3,1,0.3c0,0,0,0,0,0c-0.5-0.4-0.9-0.8-1.4-1.2c0,0-0.1,0-0.1,0C19.2,43.1,19,43.1,18.8,43.1z
	 M26.6,14.3h-0.8c0,0-0.1,0-0.1,0.1c-0.4,0.2-0.7,0.5-1.1,0.7c-0.1,0-0.1,0.1-0.2,0.1c0,0,0,0,0,0h1.1c0,0,0,0,0.1,0
	C25.9,14.9,26.3,14.6,26.6,14.3z M24.8,46.1c-0.4-0.3-0.8-0.5-1.1-0.8c-0.2-0.2-0.4-0.2-0.6-0.2c-0.2,0-0.4,0-0.6,0c0,0,0,0,0,0
	c0.5,0.3,1,0.6,1.5,0.9c0,0,0.1,0,0.1,0C24.1,46.1,24.8,46.1,24.8,46.1z M19.4,17.1C19.4,17.1,19.4,17.1,19.4,17.1
	c0.3,0.1,0.6,0,0.9-0.2c0.4-0.3,0.7-0.5,1.1-0.8c0.1-0.1,0.2-0.1,0.2-0.2c-0.3,0-0.6-0.1-0.8,0.1C20.3,16.4,19.8,16.7,19.4,17.1z
	 M25.3,14.3c-0.1,0-0.3,0-0.5,0c-0.1,0-0.3,0-0.4,0.1c-0.5,0.2-0.9,0.5-1.3,0.7c0,0,0,0-0.1,0.1h0.8c0,0,0.1,0,0.1,0
	C24.4,14.9,24.9,14.6,25.3,14.3z M30.4,47.3h0.7c0,0,0.1,0,0.1,0c0.1-0.2,0.3-0.4,0.4-0.7h-1.2C30.4,46.8,30.4,47.1,30.4,47.3z
	 M28.8,46.6C28.8,46.6,28.8,46.7,28.8,46.6c0.2,0.2,0.3,0.4,0.5,0.6c0,0,0.1,0,0.1,0h0.7c-0.1-0.2-0.1-0.4-0.2-0.7
	C29.9,46.6,28.8,46.6,28.8,46.6z M29,47.3c-0.2-0.2-0.4-0.4-0.6-0.6c0,0-0.1,0-0.1,0h-1C27.8,47,28.4,47.4,29,47.3z M23.7,46.1
	C23.7,46.1,23.6,46.1,23.7,46.1c-0.6-0.3-1.1-0.6-1.6-0.9c0,0-0.1,0-0.1,0c-0.2,0-0.3,0-0.5,0c0.5,0.3,0.9,0.5,1.4,0.8
	C23.1,46.1,23.4,46.2,23.7,46.1z M30.4,13.9h1.1c-0.1-0.2-0.3-0.4-0.4-0.5c0,0,0-0.1-0.1-0.1h-0.6C30.4,13.5,30.4,13.7,30.4,13.9z
	 M28.1,47.3C28.1,47.2,28.1,47.2,28.1,47.3L27,46.7c0,0-0.1,0-0.1,0h-0.8c0,0,0,0,0,0C26.8,46.9,27.4,47.3,28.1,47.3z M24.4,14.3
	c-0.2,0-0.4,0-0.6,0.1c-0.5,0.2-1,0.5-1.5,0.7c0,0,0,0-0.1,0.1c0.3,0.1,0.6,0,0.9-0.2c0,0,0,0,0,0C23.5,14.7,23.9,14.5,24.4,14.3z
	 M30.2,13.3c-0.2,0.1-0.5-0.1-0.7,0.1c-0.2,0.1-0.4,0.3-0.5,0.4c0,0,0,0,0,0h0.9c0,0,0.1-0.1,0.1-0.1C30.1,13.6,30.1,13.5,30.2,13.3
	z M29.3,13.3c-0.4,0-1.3,0.3-1.5,0.5C28.4,13.9,28.9,13.8,29.3,13.3z"/>
<path class="st1" d="M29.2,56.5C14.6,56.5,3.8,45,3.8,29.8c0-15.4,10.8-25.6,25.4-25.6H42c15.1,0,25.6,10.4,25.6,25.6
	S56.9,56.5,42,56.5C42,56.5,29.2,56.5,29.2,56.5z M42,47.3c9.7,0,16.5-7.3,16.5-17.1S51.6,13.3,42,13.3H29.2
	c-9.4,0-16.3,7-16.3,16.9c0,9.9,6.8,17.1,16.3,17.1H42z"/>
<path class="st1" d="M137.3,56.5l-10-36.8l-14.8,34.1c-1,2.2-2.4,3.5-4.7,3.5c-2.2,0-3.7-1.2-4.7-3.5L88.4,19.7l-10,36.8h-9
	L82.8,7.2c0.7-2.5,2.1-3.7,4.5-3.7c1.9,0,3.7,1.1,4.6,3.1l16.1,37l16.1-37c0.9-2,2.4-3.1,4.4-3.1c2.2,0,3.7,1.2,4.4,3.7l13.4,49.2
	L137.3,56.5L137.3,56.5z"/>
<path class="st1" d="M152.4,56.5V4.1h44.4v9.1h-35.4v43.2C161.5,56.5,152.4,56.5,152.4,56.5z M168.2,34.8v-8h7.6v8H168.2z"/>
<rect x="175.8" y="29.7" class="st2" width="15" height="2.2"/>
<rect x="190.5" y="28" transform="matrix(0.7071 -0.7071 0.7071 0.7071 34.8386 145.7321)" class="st3" width="5.6" height="5.6"/>
<rect x="167.7" y="26.6" class="st4" width="8.5" height="8.5"/>
</svg>
