<?xml version="1.0" encoding="UTF-8"?>
<svg enable-background="new 0 0 200.68 59.54" version="1.1" viewBox="0 0 200.68 59.54" xml:space="preserve" xmlns="http://www.w3.org/2000/svg">
<style type="text/css">
	.st0{fill:#03A3DF;}
	.st1{fill:#CCCCCC;}
	.st2{fill:#00A3E0;}
	.st3{fill:#FF7F32;}
</style>
<path class="st0" d="m24.51 46.71c-0.52-0.09-1-0.29-1.44-0.54-0.53-0.31-1.09-0.55-1.6-0.88-0.26-0.17-0.58-0.22-0.84-0.41-0.23-0.17-0.49-0.31-0.76-0.48 0.08-0.01 0.13-0.01 0.2-0.02-0.02-0.02-0.03-0.04-0.05-0.05-0.45-0.35-0.9-0.7-1.36-1.04-0.12-0.09-0.26-0.14-0.39-0.21l-0.06-0.03c-0.31-0.3-0.62-0.59-0.93-0.89 0.01-0.01 0.01-0.02 0.02-0.04 0.07 0 0.13-0.01 0.23-0.02-0.09-0.1-0.18-0.19-0.26-0.29-0.32-0.4-0.65-0.79-0.96-1.19-0.06-0.07-0.11-0.11-0.2-0.1-0.15 0.02-0.24-0.04-0.32-0.17-0.17-0.28-0.36-0.56-0.55-0.84-0.02-0.04-0.05-0.08-0.08-0.14h0.29c-0.03-0.06-0.04-0.09-0.06-0.13-0.28-0.53-0.57-1.06-0.84-1.59-0.05-0.09-0.09-0.13-0.19-0.12-0.16 0.03-0.24-0.04-0.3-0.19-0.14-0.36-0.3-0.71-0.46-1.09 0.13-0.01 0.24-0.01 0.34-0.02-0.2-0.66-0.39-1.32-0.59-1.99-0.05 0-0.11-0.02-0.18-0.01-0.13 0.01-0.2-0.04-0.22-0.17-0.08-0.4-0.16-0.8-0.25-1.23h0.39c-0.06-0.73-0.12-1.43-0.18-2.16h-0.39c0.02-0.5 0.05-0.97 0.07-1.46h0.35c0.09-0.72 0.18-1.42 0.28-2.14h-0.36c0.1-0.41 0.21-0.8 0.3-1.2 0.03-0.14 0.09-0.21 0.23-0.18s0.19-0.04 0.23-0.17c0.19-0.56 0.39-1.12 0.58-1.68 0.01-0.04 0.03-0.08 0.05-0.13h-0.33c0.12-0.27 0.23-0.52 0.34-0.77 0.03-0.06 0.07-0.12 0.09-0.19 0.07-0.2 0.16-0.34 0.41-0.29 0.04 0.01 0.1-0.03 0.12-0.07 0.33-0.56 0.65-1.12 0.98-1.69-0.07 0-0.16-0.01-0.27-0.02 0.16-0.22 0.29-0.43 0.44-0.63 0.07-0.09 0.15-0.18 0.22-0.27 0.1-0.13 0.2-0.24 0.39-0.21 0.04 0.01 0.1-0.03 0.13-0.06 0.42-0.46 0.84-0.93 1.27-1.4 0.01-0.01 0.02-0.03 0.04-0.06h-0.21c-0.01-0.01-0.02-0.02-0.03-0.04 0.06-0.05 0.11-0.09 0.17-0.14 0.26-0.22 0.52-0.45 0.78-0.67 0.09-0.07 0.21-0.09 0.31-0.16 0.54-0.37 1.07-0.75 1.6-1.12 0.01 0 0.01-0.01 0.02-0.03-0.04 0-0.08 0-0.14-0.01 0.06-0.04 0.1-0.07 0.14-0.09 0.19-0.12 0.4-0.22 0.58-0.35 0.29-0.21 0.64-0.28 0.95-0.43 0.48-0.24 0.96-0.47 1.45-0.68 0.41-0.18 0.83-0.34 1.24-0.5 0.12-0.05 0.26-0.06 0.38-0.08 0.02 0.01 0.04 0.02 0.06 0.04 0.17-0.03 0.35-0.05 0.52-0.08 0.16-0.03 0.31-0.08 0.47-0.12-0.04 0.02-0.08 0.05-0.13 0.07-0.12 0.05-0.25 0.09-0.37 0.13 0.35 0.07 0.66-0.02 0.97-0.16 0.1-0.05 0.21-0.08 0.32-0.11 0.23-0.06 0.47-0.12 0.7-0.18-0.04 0.02-0.07 0.05-0.11 0.06-0.3 0.11-0.6 0.22-0.9 0.32-0.05 0.02-0.1 0.04-0.14 0.06 0.16 0.03 0.32 0.03 0.47 0.03 0.08 0 0.17 0.01 0.24-0.02 0.38-0.17 0.76-0.35 1.15-0.53-0.2 0.01-0.4 0.03-0.59 0.04-0.17 0-0.34 0-0.51 0.01-0.04-0.02-0.08-0.04-0.11-0.06 0.54-0.06 1.08-0.13 1.62-0.17 0.32-0.03 0.65-0.02 0.98-0.02h0.04c0.26 0.04 0.26 0.04 0.45-0.07 0.07 0.17 0.22 0.05 0.33 0.07l-0.12-0.08c0.8 0.06 1.58 0.11 2.36 0.16v0.04c-0.57 0.02-1.15 0.04-1.71 0.05 0.17 0.19 0.35 0.37 0.52 0.56 0.02 0.03 0.07 0.04 0.11 0.04 0.54 0.01 1.09 0.01 1.63 0.03 0.91 0.03 1.82 0.07 2.73 0.1 0.07 0 0.15 0.02 0.22 0.05-1.46 0.15-2.93 0.13-4.41 0.17 0.02 0.04 0.03 0.07 0.05 0.1 0.15 0.29 0.3 0.57 0.45 0.86 0.03 0.07 0.07 0.1 0.15 0.1 1.05 0.02 2.1 0.03 3.15 0.06 1.1 0.03 2.19 0.08 3.29 0.13 0.15 0.01 0.3 0.03 0.45 0.08-0.04 0.01-0.07 0.02-0.11 0.02-0.68 0.04-1.36 0.09-2.04 0.11-1.28 0.04-2.55 0.06-3.83 0.09-0.26 0.01-0.52 0-0.79 0 0.01 0.06 0.01 0.09 0.02 0.12 0.14 0.42 0.29 0.84 0.43 1.26 0.02 0.07 0.05 0.11 0.13 0.11 0.96 0.01 1.92 0.02 2.89 0.04 1.51 0.04 3.01 0.09 4.52 0.14 0.54 0.02 1.08 0.07 1.63 0.11v0.05c-0.2 0.02-0.41 0.06-0.61 0.07-0.9 0.05-1.8 0.09-2.7 0.12-1.23 0.04-2.47 0.06-3.7 0.09l-1.77 0.03c-0.05 0-0.09 0.01-0.14 0.01 0.14 0.61 0.28 1.2 0.42 1.8 3.6 0.09 7.2 0.07 10.79 0.36v0.07c-0.3 0.03-0.6 0.07-0.9 0.09-1.41 0.06-2.82 0.12-4.23 0.17-0.83 0.03-1.66 0.04-2.49 0.06-1 0.02-2.01 0.04-3.02 0.06 0.11 0.7 0.21 1.4 0.32 2.09 4.04 0.1 8.09 0.08 12.12 0.42v0.06c-0.16 0.02-0.33 0.05-0.49 0.07-0.61 0.04-1.22 0.09-1.83 0.12-1.05 0.05-2.1 0.08-3.15 0.11-0.77 0.02-1.54 0.04-2.31 0.06-1.09 0.02-2.19 0.04-3.28 0.06h-0.96c0.07 0.8 0.14 1.57 0.22 2.38h0.71c1 0.01 2 0.03 3 0.05 1.19 0.02 2.37 0.05 3.56 0.09 1.17 0.04 2.34 0.08 3.51 0.14 0.61 0.03 1.22 0.1 1.84 0.16 0.08 0.01 0.16 0.04 0.24 0.09-0.2 0.03-0.4 0.06-0.61 0.07-0.88 0.05-1.77 0.11-2.65 0.15-1.23 0.05-2.46 0.08-3.69 0.11l-2.55 0.06c-1.07 0.02-2.15 0.04-3.22 0.06-0.02 0-0.05 0-0.08 0.01 0.03 0.84 0.06 1.68 0.09 2.54h0.48c1.02 0.01 2.04 0.03 3.05 0.05 0.83 0.01 1.65 0.03 2.48 0.06 1.16 0.03 2.32 0.06 3.47 0.12 1.04 0.05 2.08 0.12 3.12 0.19 0.23 0.01 0.45 0.06 0.68 0.09v0.04c-0.22 0.03-0.43 0.07-0.65 0.09-0.99 0.06-1.98 0.13-2.98 0.17-1.17 0.05-2.34 0.08-3.52 0.11-0.82 0.02-1.63 0.04-2.45 0.06-1.03 0.02-2.05 0.04-3.08 0.06h-0.6c-0.02 0.88-0.04 1.72-0.06 2.6h0.56c0.58 0.01 1.15 0.02 1.73 0.03 1.37 0.03 2.73 0.05 4.1 0.09 0.9 0.02 1.79 0.04 2.69 0.09 1.11 0.05 2.22 0.12 3.33 0.19 0.21 0.01 0.42 0.05 0.63 0.08v0.04c-0.15 0.02-0.3 0.05-0.45 0.06-0.93 0.06-1.86 0.13-2.79 0.18-1.15 0.05-2.31 0.08-3.46 0.12-0.8 0.02-1.6 0.04-2.41 0.06-1.11 0.02-2.22 0.04-3.34 0.06h-0.63c-0.06 0.82-0.12 1.61-0.19 2.42h0.52c0.78 0.01 1.56 0.02 2.34 0.04 1.27 0.03 2.54 0.05 3.81 0.09 1.05 0.03 2.09 0.06 3.14 0.11 0.72 0.03 1.43 0.1 2.15 0.16 0.11 0.01 0.22 0.04 0.33 0.05v0.04c-0.48 0.04-0.95 0.1-1.43 0.12-1.22 0.06-2.44 0.1-3.66 0.15-0.72 0.03-1.43 0.04-2.15 0.06-0.96 0.02-1.91 0.04-2.87 0.06-0.72 0.01-1.44 0.03-2.15 0.04h-0.12c-0.1 0.73-0.2 1.44-0.3 2.16 1.84 0.03 3.66 0.06 5.48 0.11s3.64 0.07 5.44 0.29v0.05c-0.11 0.01-0.21 0.04-0.32 0.04-0.88 0.05-1.75 0.11-2.63 0.15-1.33 0.05-2.65 0.08-3.98 0.11-1.04 0.03-2.08 0.04-3.12 0.06-0.29 0.01-0.57 0.03-0.86 0.05-0.13 0.01-0.2 0.07-0.22 0.21-0.1 0.53-0.23 1.05-0.34 1.58v0.05c3.07 0.12 6.14 0.01 9.19 0.35 0.02 0 0.04 0.01 0.05 0.05-0.21 0.02-0.41 0.05-0.62 0.06-0.66 0.04-1.31 0.07-1.97 0.09-1.52 0.04-3.04 0.08-4.56 0.11-0.71 0.02-1.43 0.03-2.14 0.04-0.12 0-0.16 0.04-0.2 0.16-0.13 0.43-0.26 0.85-0.4 1.27-0.01 0.03-0.02 0.07-0.04 0.12 2.46 0.07 4.91 0.04 7.35 0.25v0.05c-0.27 0.02-0.53 0.06-0.8 0.07-1.17 0.05-2.34 0.09-3.52 0.12-1.04 0.03-2.08 0.04-3.12 0.06-0.1 0-0.15 0.04-0.19 0.13-0.14 0.32-0.29 0.63-0.44 0.94-0.01 0.03-0.02 0.06-0.04 0.1 1.68 0.04 3.34 0.03 5 0.17v0.05c-0.4 0.02-0.8 0.06-1.2 0.07-1.31 0.04-2.62 0.06-3.93 0.09-0.05 0-0.12 0.02-0.15 0.05-0.18 0.22-0.35 0.44-0.53 0.66 0.77 0.02 1.56 0.05 2.34 0.07v0.07c-0.54 0.02-1.08 0.01-1.62 0.06-0.53 0.05-1.06 0.15-1.58 0.23 0.1-0.06 0.22-0.12 0.33-0.18 0-0.01-0.01-0.02-0.01-0.03h-0.51c0.01 0.07 0.01 0.13 0.03 0.26-0.19-0.27-0.42-0.31-0.68-0.24 0.01 0.01 0.01 0.03 0.01 0.03-0.2-0.02-0.4-0.03-0.6-0.05-0.06-0.03-0.11-0.05-0.08 0.05-0.15-0.01-0.3-0.01-0.45-0.02-0.8 0.02-1.57-0.11-2.34-0.31v-0.02c0.1 0.01 0.21 0.02 0.33 0.03-0.04-0.03-0.06-0.05-0.08-0.06 0.05 0.01 0.11 0.02 0.16 0.02 0.18 0.02 0.36 0.04 0.54 0.07 0-0.01 0-0.03 0.01-0.04-0.03-0.01-0.05-0.02-0.08-0.03-0.43-0.17-0.87-0.32-1.29-0.51-0.25-0.11-0.48-0.01-0.71-0.03 0.25 0.11 0.51 0.21 0.76 0.3 0.15 0.06 0.3 0.11 0.45 0.17-0.05 0-0.1 0-0.14-0.02-0.42-0.14-0.83-0.29-1.25-0.42-0.14-0.04-0.3-0.02-0.45-0.02 0.01 0.03-0.01 0.03-0.03 0.04zm8.98-16.22c-1.06 0.01-2.13 0.03-3.19 0.04v2.46h3.19v-2.5zm0.02-1.1c-0.02-0.84-0.03-1.66-0.05-2.47h-3.16v2.42c1.07 0.03 2.13 0.04 3.21 0.05zm-7.87 1.18c0.02 0.8 0.03 1.57 0.05 2.36h3.1v-2.36h-3.15zm3.15-1.26v-2.33h-3.07c-0.03 0.78-0.05 1.54-0.08 2.33h3.15zm4.66 4.79h-3.16v2.14c0 0.13 0.04 0.15 0.16 0.15 0.74 0 1.47 0.02 2.21 0.02h0.68c0.04-0.78 0.08-1.55 0.11-2.31zm-0.16-10.51h-2.99v2.25h3.12c-0.04-0.74-0.08-1.5-0.13-2.25zm-4.39 12.77c-0.01-0.14-0.01-0.28-0.02-0.41-0.02-0.56-0.03-1.12-0.04-1.69 0-0.1-0.03-0.14-0.14-0.14-0.24 0.01-0.49 0.01-0.73 0.01-0.7 0.01-1.4 0.01-2.1 0.02-0.04 0-0.07 0.01-0.11 0.01 0 0.04-0.01 0.06 0 0.08l0.15 1.98c0.01 0.11 0.06 0.11 0.15 0.11 0.62 0.01 1.25 0.02 1.87 0.02 0.32 0.01 0.63 0.01 0.97 0.01zm0.03-12.72h-2.93c-0.07 0.72-0.13 1.42-0.2 2.12 0.04 0.01 0.05 0.02 0.06 0.02 0.96 0.01 1.92 0.02 2.88 0.03 0.1 0 0.1-0.05 0.1-0.12 0.01-0.27 0.02-0.53 0.03-0.8 0.02-0.42 0.04-0.83 0.06-1.25zm-7.48 6.97c0.03 0.78 0.06 1.52 0.09 2.29h2.78c-0.02-0.76-0.05-1.53-0.07-2.29h-2.8zm0.02-1.34h2.8c0.04-0.75 0.07-1.5 0.11-2.25h-2.76c-0.06 0.76-0.1 1.49-0.15 2.25zm8.83 10.22h2.79c0.06-0.7 0.12-1.4 0.19-2.08h-2.97c-0.01 0.71-0.01 1.38-0.01 2.08zm-5.89-5.31h-2.75c0.11 0.72 0.21 1.42 0.32 2.13h2.65c-0.07-0.71-0.15-1.42-0.22-2.13zm5.9-11.58h2.91c-0.07-0.68-0.14-1.36-0.2-2.03h-2.7c-0.01 0.69-0.01 1.35-0.01 2.03zm-3.98 16.85h2.71c-0.04-0.67-0.07-1.34-0.11-1.99h-2.9c0.11 0.67 0.2 1.32 0.3 1.99zm-1.58-15.79c-0.02 0-0.04-0.01-0.06-0.01-0.82 0.01-1.63 0.01-2.45 0.02-0.04 0-0.1 0.05-0.11 0.09-0.06 0.25-0.11 0.5-0.15 0.76-0.07 0.4-0.13 0.8-0.2 1.23h2.71c0.08-0.69 0.17-1.38 0.26-2.09zm1.39-1.11h2.84c0.04-0.64 0.08-1.29 0.12-1.96h-0.14c-0.5 0.01-1 0.01-1.51 0.02-0.3 0-0.59 0.01-0.89 0.01-0.08 0-0.11 0.02-0.12 0.11-0.03 0.18-0.07 0.36-0.1 0.54-0.07 0.42-0.13 0.83-0.2 1.28zm-8.23 8.09v0.17c0.04 0.63 0.08 1.26 0.11 1.89 0.01 0.12 0.03 0.16 0.16 0.16 0.62 0 1.25 0 1.87 0.01h0.31c-0.04-0.75-0.07-1.49-0.11-2.23h-2.34zm0.21-3.59c-0.07 0.74-0.13 1.45-0.2 2.18h2.35c0.06-0.73 0.11-1.46 0.17-2.18h-2.32zm7.06 12.38v-0.08c-0.11-0.59-0.23-1.18-0.34-1.77-0.02-0.09-0.06-0.11-0.14-0.11-0.61 0.01-1.23 0.01-1.84 0.01h-0.63c0.18 0.64 0.35 1.25 0.53 1.85 0.01 0.04 0.09 0.07 0.14 0.07 0.52 0.01 1.04 0.01 1.56 0.02 0.23 0.01 0.47 0.01 0.72 0.01zm-4.68-5.21h-2.31c0.15 0.7 0.29 1.38 0.44 2.07h2.23l-0.36-2.07zm9.81 7.98h2.43c0.08-0.6 0.16-1.21 0.24-1.81h-2.67v1.81zm-5.37-19.68c0.13-0.62 0.26-1.24 0.4-1.86-0.01 0-0.03-0.01-0.04-0.01-0.74 0-1.48 0.01-2.22 0.02-0.04 0-0.1 0.06-0.12 0.1-0.14 0.41-0.27 0.83-0.39 1.24-0.05 0.16-0.09 0.32-0.14 0.51h2.51zm-4.32 3.21c0.14-0.67 0.28-1.35 0.41-2.02-0.01 0-0.01-0.01-0.01-0.01-0.7 0-1.4 0.01-2.1 0.01-0.03 0-0.08 0.04-0.09 0.08-0.17 0.64-0.33 1.27-0.51 1.94h2.3zm5.89 14.71c0.13 0.59 0.26 1.16 0.38 1.74h2.37l-0.15-1.74h-2.6zm3.81-20.73h2.58c-0.09-0.59-0.17-1.17-0.26-1.74h-2.32v1.74zm-1-1.72h-0.27c-0.62 0-1.25 0.01-1.87 0.01-0.09 0-0.13 0.02-0.15 0.11-0.08 0.33-0.16 0.65-0.24 0.98-0.04 0.18-0.08 0.36-0.13 0.57h2.51c0.04-0.55 0.1-1.11 0.15-1.67zm-10.29 19.53c0 0.03 0 0.06 0.01 0.08 0.22 0.57 0.43 1.14 0.65 1.7 0.02 0.04 0.09 0.08 0.14 0.08 0.54 0.01 1.08 0.01 1.62 0.02h0.3c-0.2-0.64-0.39-1.26-0.59-1.88h-2.13zm-1.98-4.68c-0.05-0.73-0.09-1.45-0.14-2.17h-1.8c0.05 0.73 0.1 1.44 0.15 2.17h1.79zm-1.64-5.77c-0.12 0.72-0.21 1.42-0.24 2.15h1.78c0.07-0.72 0.15-1.43 0.22-2.15h-1.76zm3.86-4.59c0.07 0.01 0.12 0.01 0.17 0.01 0.61 0.01 1.21 0.01 1.82 0.02 0.1 0 0.13-0.03 0.17-0.12 0.18-0.53 0.36-1.05 0.55-1.58 0.01-0.04 0.03-0.08 0.04-0.13-0.03-0.01-0.04-0.01-0.06-0.01-0.61 0-1.23 0-1.84 0.01-0.04 0-0.09 0.05-0.11 0.09-0.16 0.34-0.31 0.69-0.46 1.04-0.11 0.22-0.19 0.43-0.28 0.67zm6.65 19.66c-0.16-0.54-0.31-1.08-0.47-1.63-0.01-0.03-0.08-0.06-0.12-0.06-0.32 0-0.65 0.01-0.97 0.01h-1.21v0.06c0.22 0.52 0.43 1.04 0.65 1.55 0.01 0.03 0.06 0.06 0.09 0.06 0.68 0.01 1.35 0.01 2.03 0.01zm-8.2-5.87c-0.16-0.69-0.31-1.36-0.47-2.04h-1.74c0.01 0.04 0.01 0.06 0.01 0.09 0.15 0.6 0.31 1.21 0.46 1.81 0.02 0.1 0.07 0.14 0.17 0.14h1.57zm5.66-16.66c0.04 0.01 0.06 0.02 0.07 0.02 0.69 0.01 1.38 0.01 2.07 0.02 0.07 0 0.1-0.02 0.13-0.1 0.1-0.33 0.2-0.65 0.31-0.98 0.06-0.19 0.13-0.37 0.19-0.56h-0.26c-0.55 0-1.11 0.01-1.66 0.01-0.08 0-0.12 0.03-0.15 0.09-0.07 0.16-0.16 0.31-0.23 0.47-0.17 0.34-0.32 0.68-0.47 1.03zm-7.7 6.11h1.68c0.03 0 0.08-0.06 0.09-0.1 0.07-0.26 0.12-0.52 0.19-0.78 0.1-0.37 0.21-0.74 0.31-1.11-0.02 0-0.03-0.01-0.04-0.01-0.52 0-1.03 0-1.55 0.01-0.04 0-0.1 0.06-0.12 0.1-0.13 0.39-0.26 0.77-0.38 1.16-0.05 0.23-0.11 0.46-0.18 0.73zm16.63 18.74c0.1-0.5 0.2-1 0.3-1.49h-2.28v1.49h1.98zm-12.06-3.97c0.03 0.06 0.04 0.1 0.06 0.13 0.27 0.46 0.54 0.92 0.81 1.38 0.05 0.09 0.11 0.12 0.21 0.12 0.32 0 0.65 0.01 0.97 0.01h0.66c-0.25-0.54-0.5-1.06-0.75-1.58-0.02-0.04-0.09-0.07-0.13-0.07-0.32 0-0.65 0.01-0.97 0.01h-0.86zm6.86 2.51c0.17 0.48 0.32 0.93 0.47 1.37 0.01 0.03 0.07 0.05 0.1 0.05 0.14 0.01 0.28 0.01 0.42 0.01h1.41c-0.05-0.46-0.11-0.91-0.17-1.36 0-0.03-0.07-0.07-0.1-0.07h-0.72-1.41zm-10.6-5.47c-0.01 0.01-0.02 0.03-0.04 0.04 0.28 0.58 0.56 1.16 0.84 1.74 0.02 0.03 0.08 0.06 0.12 0.06 0.32 0.01 0.64 0.01 0.96 0.01h0.48v-0.04c-0.24-0.57-0.47-1.15-0.72-1.72-0.01-0.04-0.07-0.08-0.11-0.08-0.5-0.01-1.01-0.01-1.53-0.01zm2.72-16.84h-1.44c-0.04 0-0.1 0.05-0.12 0.09-0.18 0.32-0.36 0.65-0.53 0.97-0.12 0.23-0.23 0.47-0.35 0.72h1.56c0.04 0 0.09-0.06 0.11-0.1 0.12-0.26 0.22-0.52 0.34-0.77 0.14-0.3 0.28-0.6 0.43-0.91zm13.28-3.46c-0.09-0.38-0.17-0.76-0.26-1.14-0.03-0.14-0.13-0.22-0.27-0.23-0.54-0.02-1.08-0.03-1.64-0.05v1.42h2.17zm-9.21 0.82h-1.64c-0.04 0-0.1 0.05-0.13 0.09-0.29 0.45-0.58 0.9-0.88 1.36-0.02 0.03-0.03 0.06-0.05 0.11h1.75c0.08 0 0.12-0.03 0.16-0.1 0.2-0.4 0.41-0.79 0.62-1.18 0.06-0.09 0.11-0.18 0.17-0.28zm6.29-2.21h-0.17c-0.41 0.01-0.82 0.02-1.24 0.02-0.4 0-0.4 0-0.54 0.38-0.12 0.31-0.22 0.62-0.34 0.96h2.12c0.05-0.44 0.11-0.89 0.17-1.36zm-5.28 27.19c-0.01 0.01-0.02 0.03-0.03 0.04 0.28 0.43 0.55 0.86 0.84 1.29 0.02 0.03 0.09 0.04 0.13 0.04 0.41 0.01 0.82 0.01 1.22 0.01h0.38c-0.2-0.46-0.38-0.9-0.57-1.33-0.01-0.03-0.08-0.06-0.12-0.06h-0.76c-0.37 0.01-0.73 0.01-1.09 0.01zm-9.89-12.35h-1.15c0.06 0.73 0.11 1.44 0.17 2.16h1.14c-0.06-0.73-0.11-1.44-0.16-2.16zm-0.85-3.61c-0.09 0.71-0.18 1.41-0.27 2.13h1.14c0.09-0.72 0.17-1.42 0.25-2.13h-1.12zm11.03-9.94 0.03 0.06h1.77c0.04 0 0.09-0.04 0.1-0.08 0.07-0.15 0.13-0.3 0.2-0.45 0.12-0.26 0.25-0.52 0.38-0.78-0.01-0.01-0.02-0.01-0.03-0.01-0.5 0-1 0.01-1.5 0.02-0.04 0-0.09 0.02-0.11 0.05-0.28 0.39-0.56 0.79-0.84 1.19zm-4.09 24.97c-0.03-0.05-0.05-0.07-0.07-0.1-0.28-0.43-0.57-0.86-0.83-1.3-0.09-0.15-0.18-0.21-0.36-0.21-0.41 0.02-0.81 0-1.22 0v0.04c0.36 0.5 0.72 1.01 1.08 1.51 0.02 0.03 0.07 0.05 0.1 0.05 0.43 0.02 0.85 0.01 1.3 0.01zm-5.15-5.85c0-0.02 0.01-0.03 0-0.04-0.17-0.63-0.34-1.26-0.52-1.89-0.01-0.04-0.07-0.08-0.11-0.08-0.25-0.01-0.51 0-0.76 0-0.08 0-0.16 0.01-0.29 0.01 0.2 0.66 0.39 1.3 0.59 1.94 0.01 0.03 0.05 0.06 0.08 0.06h1.01zm-0.35-10.55 0.63-1.98h-0.97c-0.04 0-0.1 0.06-0.12 0.1-0.17 0.45-0.33 0.91-0.48 1.36-0.06 0.16-0.1 0.33-0.15 0.51 0.38 0.01 0.73 0.01 1.09 0.01zm5.91-7.64h-1.23c-0.03 0-0.07 0.04-0.1 0.07-0.36 0.45-0.72 0.9-1.07 1.36-0.02 0.03-0.04 0.07-0.07 0.12h1.36c0.04 0 0.09-0.03 0.11-0.07 0.32-0.49 0.65-0.98 1-1.48zm0.98 25c0 0.02 0 0.03 0.01 0.04 0.36 0.41 0.71 0.82 1.07 1.23 0.03 0.04 0.11 0.06 0.16 0.06 0.41 0.01 0.82 0.01 1.22 0.01 0.03 0 0.07-0.01 0.09-0.01-0.3-0.43-0.59-0.85-0.89-1.27-0.03-0.04-0.09-0.06-0.14-0.06h-1.43-0.09zm-5.16-3.69c-0.23-0.47-0.46-0.93-0.69-1.4-0.07-0.14-0.1-0.34-0.21-0.41s-0.31-0.02-0.47-0.02h-0.54c-0.01 0.01-0.02 0.03-0.03 0.04 0.31 0.58 0.62 1.15 0.93 1.73 0.02 0.03 0.06 0.06 0.1 0.06h0.91zm5.59-22.24c0.01 0.01 0.01 0.02 0.02 0.04h1.49c0.04 0 0.08-0.04 0.1-0.08 0.17-0.23 0.34-0.46 0.52-0.69 0.13-0.16 0.26-0.32 0.4-0.49h-0.96c-0.31 0-0.56 0.13-0.76 0.36-0.12 0.13-0.25 0.25-0.37 0.39-0.16 0.14-0.3 0.31-0.44 0.47zm8.02 29.06h1.36c0.03 0 0.07-0.03 0.08-0.05 0.12-0.35 0.24-0.71 0.36-1.06h-1.8v1.11zm-15.2-23.72h0.93c0.09 0 0.13-0.03 0.17-0.1 0.28-0.53 0.57-1.05 0.86-1.58 0.01-0.03 0.03-0.06 0.04-0.09h-0.91c-0.03 0-0.07 0.04-0.09 0.07-0.11 0.16-0.21 0.32-0.31 0.49-0.23 0.4-0.45 0.79-0.69 1.21zm14.66 23.69c-0.07-0.37-0.13-0.72-0.19-1.06h-1.75c0.13 0.25 0.25 0.47 0.35 0.7 0.11 0.26 0.26 0.4 0.58 0.37 0.33-0.03 0.66-0.01 1.01-0.01zm-7.34-1.75v-0.04c-0.27-0.28-0.54-0.56-0.81-0.85-0.14-0.15-0.25-0.37-0.42-0.44-0.18-0.08-0.41-0.02-0.63-0.02h-0.59c-0.01 0.02-0.02 0.03-0.02 0.05 0.41 0.37 0.81 0.75 1.22 1.11 0.06 0.05 0.15 0.1 0.22 0.11 0.35 0.03 0.69 0.05 1.03 0.08zm7.9-29.16h1.66c-0.12-0.32-0.24-0.65-0.37-0.97-0.01-0.03-0.05-0.06-0.08-0.06h-1.21v1.03zm-13.83 25.25c0.02 0.05 0.03 0.07 0.04 0.08 0.39 0.49 0.78 0.97 1.17 1.45 0.02 0.03 0.06 0.06 0.09 0.06h0.8v-0.03c-0.38-0.5-0.75-1-1.13-1.5-0.02-0.03-0.06-0.06-0.09-0.06h-0.88zm9.17 4.61c0 0.01-0.01 0.02-0.01 0.04 0.2 0.23 0.4 0.45 0.61 0.68 0.15 0.16 0.33 0.29 0.55 0.3 0.34 0.02 0.69 0 1.02 0-0.17-0.26-0.37-0.53-0.53-0.82-0.09-0.15-0.17-0.21-0.36-0.21-0.42 0.03-0.85 0.01-1.28 0.01zm3.98-29.88c0.06-0.32 0.13-0.64 0.19-0.97h-1.19c-0.04 0-0.09 0.05-0.11 0.09-0.16 0.26-0.31 0.52-0.46 0.79-0.01 0.02-0.01 0.05-0.02 0.09h1.59zm-6.7 0.68h-0.71c-0.22 0-0.42 0.07-0.59 0.22-0.34 0.29-0.67 0.58-1.01 0.87-0.04 0.03-0.09 0.06-0.14 0.08 0.01 0.02 0.03 0.04 0.04 0.07h1.09c0.04 0 0.08-0.04 0.11-0.07 0.22-0.21 0.43-0.44 0.65-0.65 0.18-0.17 0.37-0.34 0.56-0.52zm-3.83 2.15c-0.24 0-0.47-0.01-0.7 0-0.06 0-0.14 0.03-0.18 0.08-0.4 0.44-0.8 0.9-1.19 1.34-0.02 0.03-0.04 0.06-0.07 0.1h0.82c0.04 0 0.09-0.04 0.12-0.07 0.11-0.14 0.21-0.28 0.33-0.42 0.28-0.34 0.57-0.68 0.87-1.03zm6.88-2.84h1.36c0.04 0 0.1-0.04 0.13-0.08 0.2-0.26 0.4-0.53 0.59-0.8l0.03-0.06h-0.79c-0.24 0-0.44 0.08-0.61 0.24-0.23 0.22-0.45 0.45-0.71 0.7zm-2.16 29.9c-0.01 0.02-0.01 0.04-0.02 0.05 0.29 0.22 0.59 0.44 0.88 0.67 0.25 0.21 0.52 0.33 0.86 0.29 0.19-0.02 0.38 0 0.58 0-0.35-0.33-0.69-0.65-1.02-0.97-0.02-0.02-0.06-0.04-0.1-0.04h-1.18zm-5.1-2.05c-0.01 0.01-0.01 0.03-0.02 0.04 0.39 0.33 0.79 0.65 1.17 0.99 0.31 0.27 0.66 0.31 1.05 0.28-0.01-0.02-0.02-0.03-0.03-0.04-0.45-0.4-0.9-0.81-1.35-1.21-0.03-0.03-0.08-0.05-0.12-0.05-0.23-0.02-0.46-0.01-0.7-0.01zm7.83-28.79h-0.84c-0.05 0-0.1 0.03-0.14 0.05-0.36 0.23-0.71 0.46-1.07 0.7-0.06 0.04-0.11 0.09-0.17 0.13 0 0.01 0.01 0.03 0.01 0.04h1.1c0.02 0 0.05-0.02 0.07-0.04 0.34-0.28 0.69-0.58 1.04-0.88zm-1.82 31.86c-0.4-0.28-0.78-0.53-1.14-0.8-0.19-0.15-0.37-0.24-0.62-0.21-0.19 0.03-0.4 0.01-0.62 0.01 0.03 0.03 0.03 0.04 0.04 0.05 0.5 0.31 1 0.61 1.5 0.91 0.04 0.02 0.09 0.04 0.13 0.04h0.71zm-5.42-29.06c0.01 0.01 0.01 0.03 0.02 0.04 0.32 0.04 0.61-0.02 0.87-0.21 0.35-0.26 0.7-0.53 1.06-0.79 0.08-0.06 0.17-0.13 0.25-0.19-0.29-0.03-0.57-0.06-0.82 0.12-0.46 0.34-0.92 0.69-1.38 1.03zm5.96-2.79c-0.15 0-0.31-0.01-0.46 0-0.13 0.01-0.27 0.03-0.39 0.09-0.45 0.23-0.9 0.49-1.34 0.73-0.03 0.02-0.05 0.04-0.1 0.07h0.82c0.04 0 0.09-0.02 0.13-0.04 0.44-0.28 0.89-0.57 1.34-0.85zm5.08 33.02h0.71c0.03 0 0.07-0.01 0.09-0.03 0.14-0.21 0.27-0.43 0.41-0.66h-1.24c0.01 0.23 0.02 0.44 0.03 0.69zm-1.63-0.68c-0.01 0.01-0.02 0.03-0.03 0.04 0.19 0.19 0.37 0.39 0.56 0.58 0.02 0.02 0.06 0.04 0.09 0.04h0.72c-0.07-0.23-0.13-0.44-0.2-0.66h-1.14zm0.25 0.64c-0.21-0.19-0.43-0.38-0.64-0.58-0.03-0.02-0.06-0.05-0.09-0.05h-0.99c0.54 0.4 1.05 0.75 1.72 0.63zm-5.35-1.16c-0.02-0.01-0.03-0.02-0.04-0.03-0.51-0.3-1.02-0.6-1.54-0.9-0.04-0.02-0.09-0.05-0.13-0.05-0.16 0-0.33 0.02-0.49 0.03 0.45 0.28 0.91 0.53 1.37 0.79 0.26 0.13 0.52 0.24 0.83 0.16zm6.71-32.25h1.1c-0.14-0.19-0.26-0.36-0.39-0.53-0.02-0.02-0.05-0.05-0.08-0.05h-0.59c-0.02 0.2-0.03 0.38-0.04 0.58zm-2.28 33.41c-0.02-0.02-0.04-0.03-0.05-0.04l-1.08-0.57c-0.03-0.01-0.06-0.03-0.09-0.03h-0.76c0.02 0.03 0.02 0.05 0.02 0.05 0.62 0.27 1.21 0.67 1.96 0.59zm-3.74-32.97c-0.22-0.02-0.42-0.02-0.61 0.08-0.5 0.25-1 0.49-1.5 0.74-0.03 0.01-0.05 0.04-0.08 0.05 0.33 0.06 0.63 0.01 0.89-0.2 0 0 0.01 0 0.01-0.01 0.43-0.22 0.85-0.44 1.29-0.66zm5.82-1.02c-0.24 0.05-0.49-0.08-0.7 0.08-0.18 0.13-0.35 0.3-0.52 0.45 0.01 0.01 0.02 0.03 0.03 0.04h0.9c0.04 0 0.1-0.05 0.12-0.08 0.06-0.16 0.11-0.31 0.17-0.49zm-0.93 0.02c-0.38-0.04-1.32 0.29-1.48 0.51 0.58 0.12 1.09-0.01 1.48-0.51z"/>
<path d="m29.24 56.49c-14.62 0-25.42-11.52-25.42-26.71 0-15.41 10.8-25.63 25.42-25.63h12.75c15.12 0 25.63 10.44 25.63 25.63s-10.73 26.71-25.63 26.71h-12.75zm12.75-9.15c9.65 0 16.49-7.27 16.49-17.14s-6.84-16.92-16.49-16.92h-12.75c-9.36 0-16.27 6.98-16.27 16.92 0 9.86 6.84 17.14 16.27 17.14h12.75z"/>
<path d="m137.32 56.49-10.01-36.8-14.83 34.06c-1.01 2.23-2.45 3.46-4.68 3.46-2.16 0-3.74-1.22-4.68-3.46l-14.77-34.06-10.01 36.8h-9l13.47-49.26c0.65-2.52 2.09-3.74 4.54-3.74 1.94 0 3.74 1.08 4.61 3.1l16.13 37.01 16.13-37.01c0.86-2.02 2.45-3.1 4.39-3.1 2.23 0 3.67 1.22 4.39 3.74l13.39 49.25h-9.07z"/>
<path d="m152.43 56.49v-52.35h44.43v9.15h-35.36v43.2h-9.07zm15.77-21.68v-7.99h7.6v7.99h-7.6z"/>
<rect class="st1" x="175.8" y="29.73" width="14.97" height="2.17"/>
<rect class="st2" transform="matrix(.7071 -.7071 .7071 .7071 34.837 145.73)" x="190.51" y="27.99" width="5.65" height="5.65"/>
<rect class="st3" x="167.69" y="26.57" width="8.5" height="8.5"/>
</svg>
